<svg xmlns="http://www.w3.org/2000/svg" viewBox="0 0 374 80"><defs><style>.a{fill:#4285f4;}.b,.g{fill:#fff;}.c{fill:none;}.d{fill:#34a853;}.e{fill:#fbbc05;}.f{fill:#ea4335;}.g{font-size:29.38px;font-family:Roboto-Medium, Roboto;}</style></defs><title>google_btn</title><rect class="a" width="374" height="80" rx="4" ry="4"/><rect class="a" width="80" height="80" rx="4" ry="4"/><rect class="b" x="2" y="2" width="76" height="76" rx="2" ry="2"/><rect class="c" x="2" y="2" width="76" height="76" rx="2" ry="2"/><rect class="c" x="2" y="2" width="76" height="76" rx="2" ry="2"/><rect class="c" x="2" y="2" width="76" height="76" rx="2" ry="2"/><path class="a" d="M57.28,40.41A20,20,0,0,0,57,36.73H40v7h9.69a8.29,8.29,0,0,1-3.59,5.43v4.52h5.81a17.53,17.53,0,0,0,5.37-13.23Z"/><path class="d" d="M40,58a17.18,17.18,0,0,0,11.91-4.36L46.1,49.12A10.86,10.86,0,0,1,40,50.84a10.72,10.72,0,0,1-10.07-7.42h-6v4.66A18,18,0,0,0,40,58Z"/><path class="e" d="M29.93,43.42a10.55,10.55,0,0,1,0-6.84V31.92h-6a18,18,0,0,0,0,16.16l6-4.66Z"/><path class="f" d="M40,29.16a9.73,9.73,0,0,1,6.88,2.69L52,26.69A17.26,17.26,0,0,0,40,22a18,18,0,0,0-16.09,9.92l6,4.66A10.72,10.72,0,0,1,40,29.16Z"/><path class="c" d="M22,22H58V58H22Z"/><text class="g" transform="translate(93.73 50.58)">Prihlásiť cez Google</text></svg>