<svg xmlns="http://www.w3.org/2000/svg" viewBox="0 0 374 80"><defs><style>.a{fill:#4285f4;}.b{fill:#fff;}.c{fill:none;}.d{fill:#34a853;}.e{fill:#fbbc05;}.f{fill:#ea4335;}</style></defs><title>btn_google_signin_dark_normal</title><rect class="a" width="374" height="80" rx="4" ry="4"/><rect class="a" width="80" height="80" rx="4" ry="4"/><rect class="b" x="2" y="2" width="76" height="76" rx="2" ry="2"/><rect class="c" x="2" y="2" width="76" height="76" rx="2" ry="2"/><rect class="c" x="2" y="2" width="76" height="76" rx="2" ry="2"/><rect class="c" x="2" y="2" width="76" height="76" rx="2" ry="2"/><path class="a" d="M57.28,40.41A20,20,0,0,0,57,36.73H40v7h9.69a8.29,8.29,0,0,1-3.59,5.43v4.52h5.81a17.53,17.53,0,0,0,5.37-13.23Z"/><path class="d" d="M40,58a17.18,17.18,0,0,0,11.91-4.36L46.1,49.12A10.86,10.86,0,0,1,40,50.84a10.72,10.72,0,0,1-10.07-7.42h-6v4.66A18,18,0,0,0,40,58Z"/><path class="e" d="M29.93,43.42a10.55,10.55,0,0,1,0-6.84V31.92h-6a18,18,0,0,0,0,16.16l6-4.66Z"/><path class="f" d="M40,29.16a9.73,9.73,0,0,1,6.88,2.69L52,26.69A17.26,17.26,0,0,0,40,22a18,18,0,0,0-16.09,9.92l6,4.66A10.72,10.72,0,0,1,40,29.16Z"/><path class="c" d="M22,22H58V58H22Z"/><path class="b" d="M99.48,42.84v7.74H95.85V29.7h8a8.13,8.13,0,0,1,5.56,1.82,6.16,6.16,0,0,1,2.06,4.83,5.94,5.94,0,0,1-2,4.78,8.47,8.47,0,0,1-5.65,1.71Zm0-2.93h4.36a4.27,4.27,0,0,0,3-.91,3.34,3.34,0,0,0,1-2.63,3.59,3.59,0,0,0-1-2.7,4,4,0,0,0-2.84-1H99.48Z"/><path class="b" d="M122.41,38.25a8.16,8.16,0,0,0-1.42-.12A3.2,3.2,0,0,0,117.77,40V50.58h-3.49V35.06h3.33l.08,1.74a3.93,3.93,0,0,1,3.5-2,3.19,3.19,0,0,1,1.24.2Z"/><path class="b" d="M124.62,31a1.84,1.84,0,0,1,.51-1.33,2.28,2.28,0,0,1,2.92,0,1.81,1.81,0,0,1,.52,1.33,1.79,1.79,0,0,1-.52,1.32,2.31,2.31,0,0,1-2.92,0A1.82,1.82,0,0,1,124.62,31Zm3.7,19.55h-3.48V35.06h3.48Z"/><path class="b" d="M135.55,36.76a5.46,5.46,0,0,1,4.32-2q5,0,5,5.66V50.58h-3.49v-10a3,3,0,0,0-.7-2.27,2.8,2.8,0,0,0-2-.67,3.35,3.35,0,0,0-3.13,1.87V50.58h-3.48v-22h3.48Z"/><path class="b" d="M152.13,50.58h-3.48v-22h3.48Z"/><path class="b" d="M165.2,50.58a5.54,5.54,0,0,1-.4-1.44,5.88,5.88,0,0,1-7.89.4,4.29,4.29,0,0,1-1.48-3.3,4.41,4.41,0,0,1,1.85-3.81,9,9,0,0,1,5.27-1.33h2.14v-1a2.7,2.7,0,0,0-.68-1.92,2.64,2.64,0,0,0-2-.73,3.06,3.06,0,0,0-2,.6,1.82,1.82,0,0,0-.76,1.51h-3.49a3.9,3.9,0,0,1,.85-2.39,5.6,5.6,0,0,1,2.3-1.74,8.12,8.12,0,0,1,3.25-.63,6.48,6.48,0,0,1,4.35,1.37A4.87,4.87,0,0,1,168.17,40v7a7.93,7.93,0,0,0,.59,3.34v.24Zm-3.83-2.5a3.94,3.94,0,0,0,1.95-.51,3.36,3.36,0,0,0,1.37-1.35V43.3h-1.88a5.17,5.17,0,0,0-2.92.67,2.19,2.19,0,0,0-1,1.91,2,2,0,0,0,.67,1.6A2.56,2.56,0,0,0,161.37,48.08Zm1.94-19.53h4l-4,4.35h-2.8Z"/><path class="b" d="M180.52,46.37a1.56,1.56,0,0,0-.77-1.42,8.07,8.07,0,0,0-2.54-.86,13.15,13.15,0,0,1-3-1,4,4,0,0,1-2.61-3.66,4.11,4.11,0,0,1,1.69-3.35,6.68,6.68,0,0,1,4.3-1.35,7,7,0,0,1,4.5,1.38,4.35,4.35,0,0,1,1.71,3.57h-3.48a2.13,2.13,0,0,0-.75-1.67,2.81,2.81,0,0,0-2-.67,3.13,3.13,0,0,0-1.87.53,1.68,1.68,0,0,0-.72,1.42,1.41,1.41,0,0,0,.67,1.25,9.5,9.5,0,0,0,2.73.89,13.05,13.05,0,0,1,3.22,1.08,4.54,4.54,0,0,1,1.73,1.5,3.79,3.79,0,0,1,.57,2.12,4,4,0,0,1-1.74,3.39,7.34,7.34,0,0,1-4.54,1.3,8,8,0,0,1-3.4-.69,5.64,5.64,0,0,1-2.33-1.89,4.51,4.51,0,0,1-.83-2.6h3.39a2.42,2.42,0,0,0,.93,1.9,3.58,3.58,0,0,0,2.28.67,3.54,3.54,0,0,0,2.1-.52A1.64,1.64,0,0,0,180.52,46.37Z"/><path class="b" d="M187,31a1.84,1.84,0,0,1,.51-1.33,2.28,2.28,0,0,1,2.92,0,1.85,1.85,0,0,1,.52,1.33,1.83,1.83,0,0,1-.52,1.32,2.31,2.31,0,0,1-2.92,0A1.82,1.82,0,0,1,187,31Zm3.7,19.55h-3.48V35.06h3.48Z"/><path class="b" d="M198.85,31.29v3.77h2.74v2.59h-2.74v8.66a1.86,1.86,0,0,0,.36,1.28,1.59,1.59,0,0,0,1.25.4,5.71,5.71,0,0,0,1.22-.14v2.69a8.58,8.58,0,0,1-2.3.33q-4,0-4-4.43V37.65h-2.55V35.06h2.55V31.29Zm3.29,1.34-1.84-1.11a6.6,6.6,0,0,0,1.09-3.41V26.67h2.89v1.14a6.77,6.77,0,0,1-.61,2.66A6.27,6.27,0,0,1,202.14,32.63Z"/><path class="b" d="M218.52,48.09a3.16,3.16,0,0,0,2.17-.76,2.61,2.61,0,0,0,.91-1.88h3.29a5,5,0,0,1-.91,2.7,5.85,5.85,0,0,1-2.29,2,6.83,6.83,0,0,1-3.13.73,6.59,6.59,0,0,1-5.16-2.11,8.35,8.35,0,0,1-1.91-5.82v-.36a8.23,8.23,0,0,1,1.89-5.67,6.58,6.58,0,0,1,5.17-2.13,6.4,6.4,0,0,1,4.51,1.61,5.81,5.81,0,0,1,1.83,4.24H221.6a3.17,3.17,0,0,0-.91-2.19,2.9,2.9,0,0,0-2.17-.86,3.05,3.05,0,0,0-2.61,1.22,6.28,6.28,0,0,0-.93,3.72v.56a6.35,6.35,0,0,0,.91,3.77A3,3,0,0,0,218.52,48.09Z"/><path class="b" d="M234.36,50.87A7.24,7.24,0,0,1,229,48.79a7.61,7.61,0,0,1-2.06-5.56V42.8a9.31,9.31,0,0,1,.9-4.16,6.83,6.83,0,0,1,2.52-2.84,6.63,6.63,0,0,1,3.61-1,6.08,6.08,0,0,1,4.9,2,8.57,8.57,0,0,1,1.73,5.72v1.41H230.44a4.65,4.65,0,0,0,1.28,3,3.85,3.85,0,0,0,2.84,1.12,4.74,4.74,0,0,0,3.9-1.94l1.88,1.8a6.35,6.35,0,0,1-2.49,2.15A7.68,7.68,0,0,1,234.36,50.87Zm-.42-13.29a2.93,2.93,0,0,0-2.32,1,5.16,5.16,0,0,0-1.12,2.8h6.64v-.26a4.3,4.3,0,0,0-.93-2.65A2.91,2.91,0,0,0,233.94,37.58Z"/><path class="b" d="M247,47.8h8.26v2.78h-12.6V48.3l7.88-10.42h-7.73V35.06H255v2.21Z"/><path class="b" d="M281.72,47.87a6.94,6.94,0,0,1-3.14,2.24,12.75,12.75,0,0,1-4.56.76,8.94,8.94,0,0,1-4.65-1.19,7.88,7.88,0,0,1-3.12-3.41,11.93,11.93,0,0,1-1.14-5.17V39.47c0-3.16.75-5.62,2.27-7.4a7.87,7.87,0,0,1,6.32-2.66,8.33,8.33,0,0,1,5.54,1.73,7.45,7.45,0,0,1,2.47,5h-3.56a4,4,0,0,0-4.38-3.77,4.27,4.27,0,0,0-3.7,1.75,9,9,0,0,0-1.32,5.16v1.6a8.47,8.47,0,0,0,1.43,5.25,4.7,4.7,0,0,0,4,1.87,5.25,5.25,0,0,0,4-1.26V42.62H273.8V39.87h7.92Z"/><path class="b" d="M284.72,42.68a9.19,9.19,0,0,1,.9-4.11,6.61,6.61,0,0,1,2.54-2.81,7.19,7.19,0,0,1,3.76-1,6.79,6.79,0,0,1,5.1,2,8,8,0,0,1,2.11,5.37l0,.81a9.18,9.18,0,0,1-.89,4.1,6.47,6.47,0,0,1-2.52,2.8,7.19,7.19,0,0,1-3.79,1,6.73,6.73,0,0,1-5.26-2.19,8.33,8.33,0,0,1-2-5.83Zm3.48.3a6.24,6.24,0,0,0,1,3.75A3.21,3.21,0,0,0,292,48.09a3.17,3.17,0,0,0,2.74-1.38,6.87,6.87,0,0,0,1-4,6.2,6.2,0,0,0-1-3.73,3.42,3.42,0,0,0-5.46,0A6.75,6.75,0,0,0,288.2,43Z"/><path class="b" d="M301.44,42.68a9.06,9.06,0,0,1,.91-4.11,6.55,6.55,0,0,1,2.54-2.81,7.18,7.18,0,0,1,3.75-1,6.76,6.76,0,0,1,5.1,2,8,8,0,0,1,2.12,5.37V43a9.18,9.18,0,0,1-.88,4.1,6.53,6.53,0,0,1-2.52,2.8,7.22,7.22,0,0,1-3.8,1,6.71,6.71,0,0,1-5.25-2.19,8.34,8.34,0,0,1-2-5.83Zm3.49.3a6.24,6.24,0,0,0,1,3.75,3.45,3.45,0,0,0,5.5,0,7,7,0,0,0,1-4,6.2,6.2,0,0,0-1-3.73,3.42,3.42,0,0,0-5.46,0A6.75,6.75,0,0,0,304.93,43Z"/><path class="b" d="M318.21,42.71a9.09,9.09,0,0,1,1.7-5.77,5.45,5.45,0,0,1,4.51-2.16,5.11,5.11,0,0,1,4.18,1.85l.15-1.57h3.14v15a6.25,6.25,0,0,1-1.9,4.82,7.2,7.2,0,0,1-5.12,1.77,8.35,8.35,0,0,1-3.34-.71,6,6,0,0,1-2.47-1.86l1.65-2.1a5,5,0,0,0,4,1.91,3.85,3.85,0,0,0,2.74-.94,3.61,3.61,0,0,0,1-2.76V49.19a5.12,5.12,0,0,1-4,1.68,5.45,5.45,0,0,1-4.45-2.16A9.42,9.42,0,0,1,318.21,42.71Zm3.47.3a6.21,6.21,0,0,0,1,3.68A3.06,3.06,0,0,0,325.28,48a3.35,3.35,0,0,0,3.13-1.81V39.4a3.3,3.3,0,0,0-3.1-1.77A3.06,3.06,0,0,0,322.64,39,6.92,6.92,0,0,0,321.68,43Z"/><path class="b" d="M339.18,50.58H335.7v-22h3.48Z"/><path class="b" d="M349.81,50.87a7.2,7.2,0,0,1-5.37-2.08,7.61,7.61,0,0,1-2.06-5.56V42.8a9.31,9.31,0,0,1,.9-4.16,6.74,6.74,0,0,1,2.51-2.84,6.66,6.66,0,0,1,3.62-1,6.1,6.1,0,0,1,4.9,2A8.57,8.57,0,0,1,356,42.52v1.41H345.89a4.7,4.7,0,0,0,1.29,3A3.83,3.83,0,0,0,350,48.09a4.71,4.71,0,0,0,3.9-1.94l1.88,1.8a6.28,6.28,0,0,1-2.49,2.15A7.65,7.65,0,0,1,349.81,50.87Zm-.42-13.29a2.93,2.93,0,0,0-2.31,1,5.17,5.17,0,0,0-1.13,2.8h6.64v-.26a4.18,4.18,0,0,0-.93-2.65A2.9,2.9,0,0,0,349.39,37.58Z"/></svg>
