<?xml version="1.0" encoding="utf-8"?>
<svg viewBox="10.203 110.968 374 80" xmlns="http://www.w3.org/2000/svg">
  <rect class="a" width="374" height="80" rx="4" ry="4" style="fill: rgb(66, 133, 244);" x="10.203" y="110.968"/>
  <rect class="a" width="80" height="80" rx="4" ry="4" style="fill: rgb(66, 133, 244);" x="10.203" y="110.968"/>
  <rect class="b" x="12.203" y="112.968" width="76" height="76" rx="2" ry="2" style="fill: rgb(255, 255, 255);"/>
  <rect class="c" x="12.203" y="112.968" width="76" height="76" rx="2" ry="2" style="fill: none;"/>
  <rect class="c" x="12.203" y="112.968" width="76" height="76" rx="2" ry="2" style="fill: none;"/>
  <rect class="c" x="12.203" y="112.968" width="76" height="76" rx="2" ry="2" style="fill: none;"/>
  <path class="c" d="M 32.203 132.968 L 68.203 132.968 L 68.203 168.968 L 32.203 168.968 L 32.203 132.968 Z" style="fill: none;"/>
  <text style="fill: rgb(255, 255, 255); font-family: Arial, sans-serif; font-size: 27.6px; font-weight: 700; white-space: pre;" x="134.487" y="160.976">Prihlásiť cez EID</text>
  <g transform="matrix(1, 0, 0, 1, -72.697861, -129.669464)">
    <path d="M 126.134 290.673 C 126.134 294.683 130.144 298.693 131.527 298.693 L 139.546 298.693 C 142.934 298.693 145.699 295.928 145.699 292.54 L 145.699 287.977 L 128.831 287.977 C 127.31 287.977 126.135 289.152 126.135 290.673 L 126.134 290.673 Z" style="fill: rgb(242, 190, 0);"/>
    <path d="M 116.11 287.977 L 99.243 287.977 L 99.243 292.54 C 99.243 295.928 102.008 298.693 105.395 298.693 L 113.415 298.693 C 114.867 298.693 118.807 294.683 118.807 290.673 C 118.807 289.153 117.632 287.977 116.111 287.977 L 116.11 287.977 Z" style="fill: rgb(242, 190, 0);"/>
    <path d="M 99.243 276.571 L 115.004 276.571 L 115.004 285.765 L 99.243 285.765 L 99.243 276.571 Z" style="fill: rgb(242, 190, 0);"/>
    <path d="M 118.807 271.593 C 118.807 270.072 117.562 268.897 116.11 268.897 C 113.414 268.897 111.202 266.685 111.202 263.989 L 111.202 263.643 L 105.395 263.643 C 102.008 263.643 99.242 266.408 99.242 269.796 L 99.242 274.358 L 116.11 274.358 C 117.631 274.289 118.806 273.114 118.806 271.593 L 118.807 271.593 Z" style="fill: rgb(242, 190, 0);"/>
    <path d="M 148.948 258.873 L 95.993 258.873 C 93.436 258.873 91.362 260.947 91.362 263.505 L 91.362 298.831 C 91.362 301.389 93.436 303.463 95.993 303.463 L 144.938 303.463 L 153.579 294.683 L 153.579 263.505 C 153.579 260.948 151.505 258.874 148.948 258.874 L 148.948 258.873 Z M 147.98 292.54 C 147.98 297.172 144.178 300.974 139.546 300.974 L 105.395 300.974 C 100.763 300.974 96.961 297.172 96.961 292.54 L 96.961 269.727 C 96.961 265.095 100.764 261.293 105.395 261.293 L 139.546 261.293 C 144.178 261.293 147.98 265.095 147.98 269.727 L 147.98 292.54 Z" style="fill: rgb(242, 190, 0);"/>
    <path d="M 139.546 263.574 L 113.414 263.574 L 113.414 263.92 C 113.414 265.441 114.658 266.616 116.11 266.616 C 118.807 266.616 121.019 268.828 121.019 271.524 C 121.019 273.875 119.36 275.81 117.217 276.364 L 117.217 285.834 C 119.429 286.318 121.019 288.323 121.019 290.673 C 121.019 293.577 119.36 296.688 117.424 298.693 L 127.448 298.693 C 125.512 296.688 123.853 293.577 123.853 290.673 C 123.853 288.323 125.512 286.387 127.655 285.834 L 127.655 276.433 C 125.443 275.948 123.853 273.944 123.853 271.593 C 123.853 268.897 126.065 266.685 128.762 266.685 C 129.384 266.685 129.868 267.169 129.868 267.791 C 129.868 268.413 129.384 268.897 128.762 268.897 C 127.241 268.897 126.065 270.141 126.065 271.593 C 126.065 273.045 127.31 274.29 128.762 274.29 L 145.63 274.29 L 145.63 269.727 C 145.698 266.339 142.933 263.574 139.546 263.574 Z" style="fill: rgb(242, 190, 0);"/>
    <path d="M 129.937 276.571 L 145.699 276.571 L 145.699 285.765 L 129.937 285.765 L 129.937 276.571 Z" style="fill: rgb(242, 190, 0);"/>
  </g>
</svg>