<?xml version="1.0" encoding="utf-8"?>
<svg viewBox="9.466 204.266 374 80" xmlns="http://www.w3.org/2000/svg">
  <rect class="a" width="374" height="80" rx="4" ry="4" style="fill: rgb(66, 133, 244);" x="9.466" y="204.266"/>
  <rect class="a" width="80" height="80" rx="4" ry="4" style="fill: rgb(66, 133, 244);" x="9.466" y="204.266"/>
  <rect class="b" x="11.466" y="206.266" width="76" height="76" rx="2" ry="2" style="fill: rgb(255, 255, 255);"/>
  <rect class="c" x="11.466" y="206.266" width="76" height="76" rx="2" ry="2" style="fill: none;"/>
  <rect class="c" x="11.466" y="206.266" width="76" height="76" rx="2" ry="2" style="fill: none;"/>
  <rect class="c" x="11.466" y="206.266" width="76" height="76" rx="2" ry="2" style="fill: none;"/>
  <path class="c" d="M 31.466 226.266 L 67.466 226.266 L 67.466 262.266 L 31.466 262.266 L 31.466 226.266 Z" style="fill: none;"/>
  <g transform="matrix(0.920704, 0, 0, 0.920704, -44.920826, -47.414841)" style="">
    <path fill="#ee1c25" d="M 74.803 295.637 L 132.089 295.637 L 132.089 338.601 L 74.803 338.601 L 74.803 295.637 Z" style=""/>
    <path fill="#0b4ea2" d="M 74.803 295.637 L 132.089 295.637 L 132.089 324.279 L 74.803 324.279 L 74.803 295.637 Z" style=""/>
    <path fill="#fff" d="M 74.803 295.637 L 132.089 295.637 L 132.089 309.958 L 74.803 309.958 L 74.803 295.637 Z" style=""/>
    <path fill="#fff" d="M 95.658 328.826 C 91.81 326.973 86.296 323.286 86.296 316.009 C 86.296 308.723 86.654 305.411 86.654 305.411 L 104.672 305.411 C 104.672 305.411 105.021 308.723 105.021 316.009 C 105.021 323.295 99.507 326.965 95.658 328.826 Z" style=""/>
    <path fill="#ee1c25" d="M 95.658 327.859 C 92.123 326.159 87.066 322.776 87.066 316.098 C 87.066 309.421 87.388 306.378 87.388 306.378 L 103.929 306.378 C 103.929 306.378 104.242 309.421 104.242 316.098 C 104.251 322.784 99.194 326.159 95.658 327.859 Z" style=""/>
    <path fill="#fff" d="M 96.41 314.344 C 97.368 314.362 99.239 314.397 100.895 313.843 C 100.895 313.843 100.859 314.442 100.859 315.132 C 100.859 315.821 100.904 316.421 100.904 316.421 C 99.382 315.911 97.493 315.902 96.41 315.911 L 96.41 319.598 L 94.907 319.598 L 94.907 315.911 C 93.833 315.902 91.944 315.911 90.423 316.421 C 90.423 316.421 90.467 315.821 90.467 315.132 C 90.467 314.433 90.423 313.843 90.423 313.843 C 92.078 314.397 93.949 314.362 94.898 314.344 L 94.898 312.026 C 94.029 312.026 92.776 312.062 91.353 312.536 C 91.353 312.536 91.398 311.945 91.398 311.247 C 91.398 310.558 91.353 309.958 91.353 309.958 C 92.776 310.433 94.029 310.477 94.898 310.468 C 94.853 309 94.423 307.157 94.423 307.157 C 94.423 307.157 95.309 307.219 95.658 307.219 C 96.016 307.219 96.893 307.157 96.893 307.157 C 96.893 307.157 96.464 309 96.419 310.468 C 97.287 310.477 98.541 310.433 99.964 309.958 C 99.964 309.958 99.919 310.558 99.919 311.247 C 99.919 311.945 99.964 312.536 99.964 312.536 C 98.816 312.166 97.615 311.994 96.41 312.026 L 96.41 314.353 L 96.41 314.344 Z" style=""/>
    <path fill="#0b4ea2" d="M 95.658 319.204 C 93.877 319.204 92.929 321.666 92.929 321.666 C 92.929 321.666 92.391 320.502 90.942 320.502 C 89.957 320.502 89.241 321.371 88.776 322.185 C 90.565 325.022 93.421 326.777 95.658 327.859 C 97.896 326.786 100.76 325.022 102.542 322.185 C 102.076 321.379 101.36 320.502 100.375 320.502 C 98.926 320.502 98.389 321.666 98.389 321.666 C 98.389 321.666 97.449 319.204 95.658 319.204 Z" style=""/>
  </g>
  <text style="fill: rgb(255, 255, 255); font-family: Arial, sans-serif; font-size: 30.6px; font-weight: 400; white-space: pre;" x="110.75" y="254.274">Cez slovensko.sk</text>
</svg>