<?xml version="1.0" encoding="UTF-8" standalone="no"?>
<!-- Created with Inkscape (http://www.inkscape.org/) -->

<svg
   xmlns:dc="http://purl.org/dc/elements/1.1/"
   xmlns:cc="http://creativecommons.org/ns#"
   xmlns:rdf="http://www.w3.org/1999/02/22-rdf-syntax-ns#"
   xmlns:svg="http://www.w3.org/2000/svg"
   xmlns="http://www.w3.org/2000/svg"
   xmlns:sodipodi="http://sodipodi.sourceforge.net/DTD/sodipodi-0.dtd"
   xmlns:inkscape="http://www.inkscape.org/namespaces/inkscape"
   width="51.075958mm"
   height="8.6359997mm"
   viewBox="0 0 51.075958 8.6359997"
   version="1.1"
   id="svg4968"
   sodipodi:docname="temp_logo.svg"
   inkscape:version="0.92.1 r15371">
  <defs
     id="defs4962" />
  <sodipodi:namedview
     id="base"
     pagecolor="#ffffff"
     bordercolor="#666666"
     borderopacity="1.0"
     inkscape:pageopacity="0.0"
     inkscape:pageshadow="2"
     inkscape:zoom="1.979899"
     inkscape:cx="161.68912"
     inkscape:cy="35.005022"
     inkscape:document-units="mm"
     inkscape:current-layer="layer6"
     showgrid="false"
     fit-margin-top="0"
     fit-margin-left="0"
     fit-margin-right="0"
     fit-margin-bottom="0"
     inkscape:pagecheckerboard="true"
     inkscape:window-width="1920"
     inkscape:window-height="1001"
     inkscape:window-x="-9"
     inkscape:window-y="-9"
     inkscape:window-maximized="1" />
  <metadata
     id="metadata4965">
    <rdf:RDF>
      <cc:Work
         rdf:about="">
        <dc:format>image/svg+xml</dc:format>
        <dc:type
           rdf:resource="http://purl.org/dc/dcmitype/StillImage" />
        <dc:title></dc:title>
      </cc:Work>
    </rdf:RDF>
  </metadata>
  <g
     inkscape:groupmode="layer"
     id="layer6"
     inkscape:label="Layer 1">
    <path
       id="svg_2"
       d="M 27.633877,6.18649 V 3.56711 h 0.79375 V 2.77336 h 2.38125 V 1.1858599 h 1.031875 V 6.98024 H 28.427627 V 6.18649 Z m 1.031875,-0.23813 h 2.143125 V 3.80524 h -2.143125 z"
       class="st0"
       inkscape:connector-curvature="0"
       style="display:inline;fill:#ffffff;stroke-width:0.26458332" />
    <path
       id="svg_3"
       d="M 33.851585,2.77336 V 6.98024 H 32.81971 V 2.77336 Z"
       class="st0"
       inkscape:connector-curvature="0"
       style="display:inline;fill:#ffffff;stroke-width:0.26458332" />
    <path
       id="svg_4"
       d="M 37.979085,7.53586 V 6.98024 h -2.38125 V 6.18649 h -0.79375 V 3.56711 h 0.79375 V 2.77336 H 39.01096 V 8.56774 H 35.571377 V 7.53586 Z m -2.169583,-1.5875 h 2.143125 V 3.80524 h -2.143125 z"
       class="st0"
       inkscape:connector-curvature="0"
       style="display:inline;fill:#ffffff;stroke-width:0.26458332" />
    <path
       id="svg_5"
       d="M 40.995335,2.77336 V 6.98024 H 39.96346 V 2.77336 Z"
       class="st0"
       inkscape:connector-curvature="0"
       style="display:inline;fill:#ffffff;stroke-width:0.26458332" />
    <path
       id="svg_6"
       d="m 42.741585,6.98024 v -3.175 h -0.79375 V 2.77336 h 0.79375 V 1.1858599 H 43.77346 V 2.77336 h 0.79375 v 1.03188 h -0.79375 v 3.175 z"
       class="st0"
       inkscape:connector-curvature="0"
       style="display:inline;fill:#ffffff;stroke-width:0.26458332" />
    <path
       id="svg_7"
       d="M 45.67846,6.98024 V 6.18649 H 44.88471 V 5.15461 h 0.79375 V 4.36086 h 2.38125 V 3.80524 H 45.599085 V 2.77336 h 2.69875 v 0.79375 h 0.79375 v 2.61938 h -0.79375 V 6.98024 Z M 45.916585,5.94836 H 48.05971 V 5.39274 h -2.143125 z"
       class="st0"
       inkscape:connector-curvature="0"
       style="display:inline;fill:#ffffff;stroke-width:0.26458332" />
    <path
       id="svg_8"
       d="M 51.07596,1.1858599 V 6.98024 H 50.044085 V 1.1858599 Z"
       class="st0"
       inkscape:connector-curvature="0"
       style="display:inline;fill:#ffffff;stroke-width:0.26458332" />
    <rect
       id="svg_19"
       height="1.031875"
       width="1.031875"
       class="st2"
       y="5.9483619"
       x="25.887623"
       style="display:inline;fill:#ffffff;stroke-width:0.26458332" />
    <rect
       id="svg_20"
       height="1.031875"
       width="1.031875"
       class="st2"
       y="1.1329477"
       x="32.81971"
       style="display:inline;fill:#ffffff;stroke-width:0.26458332" />
    <rect
       id="svg_21"
       height="1.031875"
       width="1.031875"
       class="st2"
       y="1.1329477"
       x="39.910542"
       style="display:inline;fill:#ffffff;stroke-width:0.26458332" />
    <path
       transform="translate(8.9070278,-130.90819)"
       inkscape:connector-curvature="0"
       d="m -8.9070279,137.90166 v -4.19947 h 1.0159999 l 0.084667,0.5334 h 0.033867 q 0.2709333,-0.254 0.5926666,-0.44027 0.3217333,-0.19473 0.7535333,-0.19473 0.6857999,0 0.9905999,0.44873 0.3132667,0.44874 0.3132667,1.2446 v 2.60774 h -1.2446 v -2.44687 q 0,-0.4572 -0.1269999,-0.62653 -0.1185334,-0.16934 -0.3894667,-0.16934 -0.2370666,0 -0.4064,0.11007 -0.1693333,0.1016 -0.3725333,0.29633 v 2.83634 z"
       id="path5541"
       style="fill:#ffffff" />
    <path
       transform="translate(8.9070278,-130.90819)"
       inkscape:connector-curvature="0"
       d="m -3.2760337,138.00326 q -0.2878667,0 -0.5249333,-0.1016 -0.2286,-0.0931 -0.3894667,-0.26247 -0.1608666,-0.1778 -0.254,-0.4064 -0.084667,-0.2286 -0.084667,-0.49953 0,-0.6604 0.5588,-1.03294 0.5587999,-0.37253 1.8033999,-0.49953 -0.016933,-0.2794 -0.1693334,-0.44027 -0.1439333,-0.16933 -0.4910666,-0.16933 -0.2709333,0 -0.5418666,0.1016 -0.2624667,0.1016 -0.5672667,0.2794 l -0.4487333,-0.82127 q 0.4064,-0.24553 0.8466666,-0.39793 0.4487333,-0.1524 0.9482666,-0.1524 0.8128,0 1.2361333,0.46567 0.43179999,0.4572 0.43179999,1.43086 v 2.40454 H -1.9383005 l -0.084667,-0.4318 h -0.033867 q -0.2709333,0.23706 -0.5672666,0.38946 -0.2963333,0.14394 -0.6519326,0.14394 z m 0.4233333,-0.9652 q 0.2116667,0 0.3640666,-0.0931 0.1524,-0.0931 0.3217334,-0.26246 v -0.7366 q -0.6604,0.0931 -0.9144,0.27093 -0.254,0.1778 -0.254,0.42333 0,0.2032 0.127,0.3048 0.1354667,0.0931 0.3556,0.0931 z m 0.381,-3.97934 -0.6096,-0.6096 1.3038666,-1.54093 0.83819996,0.82127 z"
       id="path5543"
       style="fill:#ffffff" />
    <path
       transform="translate(8.9070278,-130.90819)"
       inkscape:connector-curvature="0"
       d="m 0.82315616,137.90166 -1.41393326,-4.19947 h 1.25306661 l 0.54186659,1.9812 q 0.084667,0.31327 0.1608667,0.64347 0.084667,0.32173 0.1693333,0.65193 h 0.033867 q 0.0762,-0.3302 0.1524,-0.65193 0.084667,-0.3302 0.1693333,-0.64347 l 0.5503333,-1.9812 h 1.1937999 l -1.3715999,4.19947 z"
       id="path5545"
       style="fill:#ffffff" />
    <path
       transform="translate(8.9070278,-130.90819)"
       inkscape:connector-curvature="0"
       d="m 5.7544605,138.00326 q -0.3979333,0 -0.7704666,-0.14394 -0.3725334,-0.1524 -0.6604,-0.4318 -0.2794,-0.2794 -0.4487333,-0.6858 -0.1693333,-0.41486 -0.1693333,-0.9398 0,-0.52493 0.1693333,-0.93133 0.1693333,-0.41487 0.4487333,-0.69427 0.2878666,-0.2794 0.6604,-0.42333 0.3725333,-0.1524 0.7704666,-0.1524 0.3979333,0 0.7619999,0.1524 0.3725334,0.14393 0.6519333,0.42333 0.2878667,0.2794 0.4572,0.69427 0.1693333,0.4064 0.1693333,0.93133 0,0.52494 -0.1693333,0.9398 -0.1693333,0.4064 -0.4572,0.6858 -0.2793999,0.2794 -0.6519333,0.4318 -0.3640666,0.14394 -0.7619999,0.14394 z m 0,-1.00754 q 0.381,0 0.5757333,-0.32173 0.1947333,-0.32173 0.1947333,-0.87207 0,-0.55033 -0.1947333,-0.87206 -0.1947333,-0.32174 -0.5757333,-0.32174 -0.3894667,0 -0.5842,0.32174 -0.1862666,0.32173 -0.1862666,0.87206 0,0.55034 0.1862666,0.87207 0.1947333,0.32173 0.5842,0.32173 z"
       id="path5547"
       style="fill:#ffffff" />
    <path
       transform="translate(8.9070278,-130.90819)"
       inkscape:connector-curvature="0"
       d="m 9.8734934,138.00326 q -0.3894667,0 -0.7112,-0.1524 -0.3132666,-0.1524 -0.5418666,-0.4318 -0.2201333,-0.28787 -0.3471333,-0.69427 -0.1185334,-0.4064 -0.1185334,-0.92287 0,-0.51646 0.1439334,-0.92286 0.1524,-0.4064 0.3894666,-0.6858 0.2455333,-0.28787 0.5588,-0.44027 0.3217333,-0.1524 0.6519333,-0.1524 0.3555996,0 0.5841996,0.11853 0.2286,0.11854 0.448734,0.32174 l -0.0508,-0.64347 v -1.43087 h 1.2446 v 5.93514 h -1.016 l -0.08467,-0.41487 h -0.03387 q -0.220133,0.22013 -0.516466,0.37253 -0.296334,0.14394 -0.6011336,0.14394 z m 0.3217336,-1.016 q 0.2032,0 0.364066,-0.0847 0.169334,-0.0847 0.321734,-0.29633 v -1.71874 q -0.169334,-0.1524 -0.347134,-0.21166 -0.1778,-0.0593 -0.347133,-0.0593 -0.2963333,0 -0.5249333,0.28787 -0.2286,0.2794 -0.2286,0.88053 0,0.62653 0.1947334,0.9144 0.2032,0.28787 0.5672669,0.28787 z"
       id="path5549"
       style="fill:#ffffff" />
    <path
       transform="translate(8.9070278,-130.90819)"
       inkscape:connector-curvature="0"
       d="m 13.413221,139.54419 q -0.194734,0 -0.3302,-0.0254 -0.135467,-0.0169 -0.262467,-0.0593 l 0.220133,-0.94826 q 0.05927,0.0169 0.135467,0.0339 0.0762,0.0169 0.143933,0.0169 0.313267,0 0.4826,-0.1524 0.169334,-0.1524 0.254,-0.39794 l 0.05927,-0.22013 -1.617133,-4.0894 h 1.253066 l 0.601134,1.8034 q 0.09313,0.28787 0.169333,0.5842 0.0762,0.29633 0.160866,0.6096 h 0.03387 q 0.06773,-0.29633 0.135467,-0.59267 0.0762,-0.3048 0.1524,-0.60113 l 0.508,-1.8034 h 1.1938 l -1.456267,4.2418 q -0.1524,0.39793 -0.321733,0.69427 -0.160867,0.3048 -0.381,0.49953 -0.211667,0.2032 -0.491067,0.3048 -0.270933,0.1016 -0.643466,0.1016 z"
       id="path5551"
       style="fill:#ffffff" />
  </g>
</svg>
